<?xml version="1.0" standalone="no"?>
<!DOCTYPE svg PUBLIC "-//W3C//DTD SVG 20010904//EN"
 "http://www.w3.org/TR/2001/REC-SVG-20010904/DTD/svg10.dtd">
<svg version="1.0" xmlns="http://www.w3.org/2000/svg"
 width="512.000000pt" height="512.000000pt" viewBox="0 0 512.000000 512.000000"
 preserveAspectRatio="xMidYMid meet">
<metadata>
Created by potrace 1.14, written by Peter Selinger 2001-2017
</metadata>
<g transform="translate(0.000000,512.000000) scale(0.100000,-0.100000)"
fill="#000000" stroke="none">
<path d="M410 2900 l0 -450 450 0 450 0 0 450 0 450 -450 0 -450 0 0 -450z"/>
<path d="M1859 3339 c-160 -37 -301 -180 -338 -340 -45 -192 64 -421 236 -500
76 -35 95 -40 168 -46 136 -11 253 33 351 131 117 118 159 271 118 430 -59
230 -305 380 -535 325z"/>
<path d="M2975 3343 c-216 -51 -364 -230 -365 -442 0 -68 24 -164 57 -221 37
-65 130 -153 196 -184 225 -106 492 -15 599 206 147 302 -73 652 -407 647 -33
-1 -69 -3 -80 -6z"/>
<path d="M4635 2425 c-14 -13 -25 -36 -25 -50 0 -33 42 -75 75 -75 33 0 75 42
75 75 0 33 -42 75 -75 75 -14 0 -37 -11 -50 -25z"/>
<path d="M2140 2392 c-26 -8 -47 -43 -42 -69 12 -65 111 -67 127 -2 11 44 -40
86 -85 71z"/>
<path d="M443 2363 l-32 -4 0 -280 1 -279 54 0 53 0 0 280 c0 158 -3 280 -8
280 -5 0 -15 2 -23 3 -7 2 -27 2 -45 0z"/>
<path d="M730 2210 c-81 -31 -132 -109 -132 -201 1 -132 98 -221 231 -213 181
11 266 221 145 362 -57 67 -154 87 -244 52z m137 -92 c12 -6 30 -27 39 -46 38
-81 -11 -184 -88 -184 -71 0 -110 42 -111 121 -1 101 73 151 160 109z"/>
<path d="M1202 2214 c-88 -38 -135 -144 -114 -257 20 -101 106 -171 200 -162
49 5 97 28 111 52 9 16 11 15 12 -7 6 -106 -26 -149 -111 -155 -23 -1 -73 26
-88 46 -10 14 -26 19 -64 19 -49 0 -50 0 -43 -27 18 -73 89 -122 187 -128 110
-6 193 44 217 132 6 21 11 138 11 266 l0 227 -55 0 c-53 0 -55 -1 -55 -27 0
-24 -1 -25 -18 -10 -47 43 -130 57 -190 31z m158 -97 c31 -23 50 -62 50 -99 0
-80 -39 -127 -106 -128 -136 -1 -156 211 -23 239 38 8 57 5 79 -12z"/>
<path d="M1736 2214 c-57 -20 -93 -54 -116 -107 -70 -161 35 -320 206 -312
121 6 204 98 204 224 -1 147 -148 245 -294 195z m141 -101 c46 -30 55 -134 17
-186 -40 -53 -126 -50 -168 6 -15 21 -20 41 -18 80 2 62 25 97 73 114 36 12
61 9 96 -14z"/>
<path d="M2505 2218 c-16 -6 -39 -19 -51 -29 -27 -25 -32 -24 -29 6 3 24 1 25
-51 25 l-54 0 0 -309 c0 -201 4 -311 10 -313 6 -2 30 -2 53 0 l43 4 0 124 c-1
116 3 140 20 113 15 -24 87 -47 135 -43 86 7 147 63 169 154 41 171 -95 320
-245 268z m123 -138 c50 -74 4 -185 -79 -192 -136 -11 -169 212 -36 242 44 9
87 -10 115 -50z"/>
<path d="M2915 2216 c-93 -35 -123 -129 -61 -191 13 -13 50 -31 82 -40 95 -28
124 -43 124 -65 0 -48 -96 -55 -130 -9 -13 16 -28 21 -66 22 -32 1 -49 -3 -48
-11 1 -7 2 -18 3 -25 1 -18 39 -59 74 -81 53 -32 176 -26 223 13 51 42 59 111
18 160 -19 23 -46 37 -110 57 -108 33 -133 72 -58 93 34 9 84 -11 84 -34 0
-11 13 -15 55 -15 30 0 55 3 55 7 0 23 -44 91 -68 105 -42 25 -128 31 -177 14z"/>
<path d="M3920 2214 c-19 -8 -42 -22 -51 -30 -15 -13 -16 -12 -12 11 5 24 4
25 -51 25 l-56 0 0 -210 0 -210 53 0 54 0 1 134 c0 76 5 144 12 155 32 61 146
56 168 -8 5 -14 8 -83 8 -154 l-1 -127 53 0 c34 0 52 4 53 13 0 6 0 57 0 112
0 163 11 193 76 205 47 8 90 -11 103 -46 6 -14 10 -84 10 -155 l0 -130 53 3
52 3 0 156 c0 149 -2 158 -25 192 -13 19 -36 42 -50 50 -63 37 -161 27 -210
-22 l-28 -27 -30 27 c-30 27 -88 49 -127 49 -11 -1 -36 -8 -55 -16z"/>
<path d="M2110 2011 l0 -211 53 0 52 0 0 208 0 207 -53 3 -52 3 0 -210z"/>
<path d="M3245 2072 c1 -163 11 -202 61 -241 61 -48 158 -47 212 2 l22 20 0
-26 c0 -26 2 -27 53 -27 l53 0 0 210 1 210 -54 0 -53 0 0 -124 c0 -142 -9
-178 -52 -199 -48 -23 -120 2 -129 46 -1 4 -3 12 -4 17 -1 6 -3 66 -4 135 l-1
125 -53 0 -53 0 1 -148z"/>
</g>
</svg>
